<?xml version="1.0" encoding="UTF-8" standalone="no"?>
<svg xmlns:dc="http://purl.org/dc/elements/1.1/" xmlns:cc="http://creativecommons.org/ns#" xmlns:rdf="http://www.w3.org/1999/02/22-rdf-syntax-ns#" xmlns:svg="http://www.w3.org/2000/svg" xmlns="http://www.w3.org/2000/svg" width="100%" height="100%" viewBox="0 0 64 64" version="1.1" xml:space="preserve" style="fill-rule:evenodd;clip-rule:evenodd;stroke-linecap:round;stroke-linejoin:round;stroke-miterlimit:2;" id="svg17">
  <metadata id="metadata23"> <rdf:RDF> <cc:Work rdf:about=""> <dc:format>image/svg+xml</dc:format> <dc:type rdf:resource="http://purl.org/dc/dcmitype/StillImage" /> </cc:Work> </rdf:RDF></metadata> <defsid="defs21" />

  
  <path d="M49.972,21.334c0.003,-2.264 0.011,-4.339 0.028,-5.976c0.009,-0.836 -0.403,-1.621 -1.082,-2.109c-0.679,-0.488 -1.552,-0.618 -2.344,-0.351" style="fill:none;stroke:#222a33;stroke-width:2px;" id="path3" />
  <path d="M46.325,13.232c-0.001,0 -0.002,0 -0.002,0.001" style="fill:none;stroke:#222a33;stroke-width:2px;" id="path5" />
  <path d="M29.336,12.699c-3.864,1.449 -7.998,1.52 -11.907,0.2c-0.001,0 -0.002,0 -0.003,-0.001c-0.792,-0.267 -1.665,-0.137 -2.344,0.351c-0.679,0.488 -1.082,1.273 -1.082,2.109c0,4.62 0,12.734 0,18.717" style="fill:none;stroke:#222a33;stroke-width:2px;" id="path7" />
  <path d="M31.455,52.242c0,0 6.522,-3.748 11.83,-6.799" style="fill:none;stroke:#222a33;stroke-width:2px;" id="path9" />
  <path d="M54,14.908c0,-1.988 -0.958,-3.854 -2.573,-5.013c-1.615,-1.16 -3.689,-1.47 -5.573,-0.835c-0.001,0.001 -0.002,0.001 -0.002,0.001c-3.253,1.098 -6.784,1.039 -9.999,-0.166c-1.469,-0.551 -2.623,-0.984 -2.623,-0.984c-0.793,-0.297 -1.667,-0.297 -2.46,0c0,0 -1.154,0.433 -2.623,0.984c-3.215,1.205 -6.746,1.264 -9.999,0.166c0,0 -0.001,0 -0.002,-0.001c-1.884,-0.635 -3.958,-0.325 -5.573,0.835c-1.615,1.159 -2.573,3.025 -2.573,5.013c0,4.748 0,13.085 0,19.232c0,6.014 3.131,11.594 8.263,14.728c5.117,3.125 11.35,6.93 11.35,6.93c1.093,0.668 2.463,0.686 3.573,0.048c0,0 6.701,-3.851 12.156,-6.986c5.356,-3.078 8.658,-8.784 8.658,-14.962l0,-18.99Z" style="fill:none;stroke:#222a33;stroke-width:2px;stroke-linecap:butt;" id="path11" /> <circle cx="32" cy="26" r="5" style="fill:none;stroke:#222a33;stroke-width:2px;" id="circle13" />
  <path d="M21.169,40.5c2.471,-3.946 6.405,-6.5 10.831,-6.5c4.426,0 8.36,2.554 10.831,6.5" style="fill:none;stroke:#222a33;stroke-width:2px;" id="path15" />

</svg>
