<?xml version="1.0" encoding="utf-8"?>
<!-- Generator: Adobe Illustrator 25.2.1, SVG Export Plug-In . SVG Version: 6.00 Build 0)  -->
<svg version="1.1" id="Capa_1" xmlns="http://www.w3.org/2000/svg" xmlns:xlink="http://www.w3.org/1999/xlink" x="0px" y="0px"
	 viewBox="0 0 1133.86 1133.86" style="enable-background:new 0 0 1133.86 1133.86;" xml:space="preserve">
<style type="text/css">
	.st0{display:none;}
	.st1{display:inline;fill:#FFFFFF;}
	.st2{fill:none;}
	.st3{fill:#D0B0E0;}
</style>
<g>
	<g class="st0">
		<path class="st1" d="M662.04,464.9c0,31.53-20,58.4-48,68.6v101.82c87.57-13.63,154.58-89.36,154.58-180.75
			c0-101.03-81.9-182.94-182.94-182.94c-100.39,0-181.87,80.86-182.91,181l0.08,57.04l0.2,0.22v142l161.08-11.45l-0.82-107.23
			c-27.61-10.41-47.26-37.06-47.26-68.32c0-40.32,32.68-73,73-73S662.04,424.58,662.04,464.9z"/>
		<path class="st1" d="M610.71,904.11v0.53l-0.27-0.02c-0.08,1.09-0.18,2.18-0.27,3.27l1.89-3.86
			C611.61,904.06,611.17,904.09,610.71,904.11z"/>
		<path class="st1" d="M351.52,651.97l0.52-200.07l0.72,0.82v-1.1l-0.58-0.03c0-5.51,0.21-10.97,0.58-16.39v-0.14h0.01
			c8.48-121.24,109.51-216.97,232.91-216.97c128.96,0,233.5,104.54,233.5,233.5c0,119.36-89.56,217.78-205.14,231.78v176.51
			c211.08-13.03,378.25-188.35,378.25-402.72c0-222.85-180.65-403.5-403.5-403.5c-215.43,0-391.43,168.84-402.9,381.41l-0.28,217.07
			l-0.12,92.19C224.52,693.15,283.88,658.35,351.52,651.97z"/>
		<path class="st1" d="M376.51,1076.11c99.51,0,181.11-76.69,188.93-174.19l-0.4-0.02V760.33l-0.56-73.09l-161.44,8.13v123.32
			c27.48,10.48,47,37.06,47,68.22c0,40.32-32.68,73-73,73s-73-32.68-73-73c0-31.17,19.55-57.77,47.04-68.23l0.31-120.01
			c-92.82,12.28-164.45,91.72-164.45,187.9C186.95,991.24,271.82,1076.11,376.51,1076.11z"/>
		<path class="st1" d="M610.71,904.65v-0.53c0.45-0.02,0.9-0.05,1.35-0.07c236.33-12.11,424.23-207.55,424.23-446.89
			c0-247.15-200.35-447.5-447.5-447.5c-239.74,0-435.44,188.52-446.96,425.4v0c-0.36,7.32-0.54,14.69-0.54,22.1c0,0.13,0,0.27,0,0.4
			l0.54,0v382.71c-3.14,15.39-4.79,31.32-4.79,47.64c0,130.89,106.11,237,237,237c124.15,0,225.97-95.47,236.14-216.99
			c0.09-1.09,0.19-2.18,0.27-3.27L610.71,904.65z M589.04,391.9c-40.32,0-73,32.68-73,73c0,31.25,19.65,57.91,47.26,68.32
			l0.82,107.23L403.04,651.9v-142l-0.2-0.22l-0.08-57.04c1.04-100.14,82.53-181,182.91-181c101.03,0,182.94,81.9,182.94,182.94
			c0,91.39-67.01,167.12-154.58,180.75V533.5c28-10.21,48-37.07,48-68.6C662.04,424.58,629.36,391.9,589.04,391.9z M185.62,652.12
			l0.28-217.07c11.47-212.57,187.47-381.41,402.9-381.41c222.85,0,403.5,180.65,403.5,403.5c0,214.37-167.17,389.69-378.25,402.72
			V683.36c115.58-14,205.14-112.42,205.14-231.78c0-128.96-104.54-233.5-233.5-233.5c-123.4,0-224.43,95.73-232.91,216.97h-0.01
			v0.14c-0.38,5.42-0.58,10.88-0.58,16.39l0.58,0.03v1.1l-0.72-0.82l-0.52,200.07c-67.64,6.38-127,41.18-166.03,92.34L185.62,652.12
			z M351.4,698.65l-0.31,120.01c-27.5,10.47-47.04,37.06-47.04,68.23c0,40.32,32.68,73,73,73s73-32.68,73-73
			c0-31.16-19.52-57.74-47-68.22V695.37l161.44-8.13l0.56,73.09V901.9l0.4,0.02c-7.82,97.5-89.42,174.19-188.93,174.19
			c-104.69,0-189.56-84.87-189.56-189.56C186.95,790.38,258.58,710.94,351.4,698.65z"/>
	</g>
	<g>
		<path class="st2" d="M646.28,470.01c0,29.85-18.93,55.28-45.44,64.95v96.39c82.9-12.9,146.33-84.6,146.33-171.11
			c0-95.65-77.54-173.18-173.18-173.18c-95.03,0-172.17,76.55-173.16,171.35l0.08,53.99l0.19,0.21v134.43l152.49-10.84l-0.78-101.52
			c-26.14-9.85-44.74-35.09-44.74-64.68c0-38.17,30.94-69.11,69.11-69.11C615.34,400.91,646.28,431.85,646.28,470.01z"/>
		<path class="st2" d="M597.69,885.81v0.5l-0.25-0.02c-0.07,1.04-0.17,2.07-0.25,3.1l1.78-3.66
			C598.54,885.76,598.12,885.79,597.69,885.81z"/>
		<path class="st2" d="M352.32,647.11l0.49-189.4l0.68,0.77v-1.04l-0.55-0.03c0-5.22,0.19-10.39,0.55-15.51v-0.13h0.01
			c8.03-114.78,103.67-205.4,220.49-205.4c122.08,0,221.05,98.97,221.05,221.05c0,112.99-84.78,206.17-194.2,219.42v167.1
			c199.83-12.34,358.08-178.31,358.08-381.24c0-210.96-171.02-381.98-381.98-381.98C373,80.7,206.39,240.53,195.53,441.76
			l-0.26,205.49l-0.11,87.27C232.09,686.09,288.29,653.15,352.32,647.11z"/>
		<path class="st2" d="M375.98,1048.63c94.21,0,171.45-72.6,178.86-164.9l-0.38-0.02V749.69l-0.53-69.19l-152.83,7.69v116.74
			c26.01,9.92,44.49,35.08,44.49,64.58c0,38.17-30.94,69.11-69.11,69.11s-69.11-30.94-69.11-69.11c0-29.51,18.5-54.69,44.54-64.59
			l0.3-113.61c-87.87,11.63-155.68,86.83-155.68,177.88C196.53,968.29,276.87,1048.63,375.98,1048.63z"/>
		<path class="st3" d="M597.69,886.31v-0.5c0.43-0.02,0.85-0.05,1.28-0.07c223.73-11.46,401.61-196.48,401.61-423.06
			c0-233.97-189.67-423.64-423.64-423.64c-226.95,0-412.22,178.47-423.12,402.71v0c-0.34,6.93-0.51,13.91-0.51,20.92
			c0,0.13,0,0.25,0,0.38l0.51,0v362.3c-2.97,14.57-4.54,29.65-4.54,45.1c0,123.91,100.45,224.36,224.36,224.36
			c117.53,0,213.92-90.38,223.54-205.42c0.09-1.03,0.18-2.06,0.25-3.1L597.69,886.31z M552.81,534.69l0.78,101.52L401.1,647.04
			V512.61l-0.19-0.21l-0.08-53.99c0.99-94.8,78.13-171.35,173.16-171.35c95.65,0,173.18,77.54,173.18,173.18
			c0,86.51-63.44,158.21-146.33,171.11v-96.39 M195.26,647.25l0.26-205.49C206.39,240.53,373,80.7,576.94,80.7
			c210.96,0,381.98,171.02,381.98,381.98c0,202.93-158.25,368.9-358.08,381.24v-167.1c109.42-13.25,194.2-106.43,194.2-219.42
			c0-122.08-98.97-221.05-221.05-221.05c-116.82,0-212.46,90.62-220.49,205.4h-0.01v0.13c-0.36,5.13-0.55,10.3-0.55,15.51l0.55,0.03
			v1.04l-0.68-0.77l-0.49,189.4c-64.04,6.04-120.23,38.98-157.17,87.42L195.26,647.25z M352.21,691.3l-0.3,113.61
			c-26.03,9.91-44.54,35.08-44.54,64.59c0,38.17,30.94,69.11,69.11,69.11s69.11-30.94,69.11-69.11c0-29.49-18.48-54.66-44.49-64.58
			V688.19l152.83-7.69l0.53,69.19v134.02l0.38,0.02c-7.41,92.3-84.65,164.9-178.86,164.9c-99.11,0-179.45-80.34-179.45-179.45
			C196.53,778.13,264.34,702.93,352.21,691.3z"/>
		<path class="st3" d="M509,524.54c14.34-32.09,40.56-91.31,56.25-126.77c4.91-11.1,20.67-11.04,25.51,0.08l55.22,126.86
			c4.28,9.83-3.69,20.62-14.35,19.4l-52.81-6.01c-1.05-0.12-0.33,0.11-1.37,0.23l-54.15,5.74C512.58,545.28,504.6,534.39,509,524.54
			z"/>
	</g>
</g>
</svg>
